<svg xmlns="http://www.w3.org/2000/svg" width="68.891" height="81.945" viewBox="0 0 68.891 81.945">
  <path id="Path_11644" data-name="Path 11644" d="M61.7,24.168C43.774,24.168,29.25,38.732,29.25,56c0,16.63,10.347,34.136,30.131,45.445a4.529,4.529,0,0,0,4.605-.082C82.451,90.051,94.141,72.585,94.141,56c0-17.272-14.525-31.829-32.445-31.829Zm0,46.97v-.006A16.044,16.044,0,0,1,46.889,61.6a15.037,15.037,0,0,1,3.469-16.836,16.47,16.47,0,0,1,17.469-3.35,15.457,15.457,0,0,1,9.895,14.269c-.006,8.53-7.177,15.441-16.027,15.447Z" transform="translate(-27.25 -22.168)" fill="#d6186f" stroke="#fff" stroke-width="4"/>
</svg>
