<svg id="Group_210" data-name="Group 210" xmlns="http://www.w3.org/2000/svg" xmlns:xlink="http://www.w3.org/1999/xlink" width="23.988" height="23.988" viewBox="0 0 23.988 23.988">
  <defs>
    <clipPath id="clip-path">
      <rect id="Rectangle_188" data-name="Rectangle 188" width="23.988" height="23.988" fill="none"/>
    </clipPath>
  </defs>
  <g id="Group_209" data-name="Group 209" clip-path="url(#clip-path)">
    <path id="Path_11621" data-name="Path 11621" d="M11.994,23.988h0A11.994,11.994,0,0,1,11.994,0h0a11.994,11.994,0,0,1,0,23.988" transform="translate(0)" fill="#1773e6"/>
    <path id="Path_11622" data-name="Path 11622" d="M72.363,88.931H61.382V92.77H71.87Z" transform="translate(-53.877 -78.058)" fill="#fff"/>
    <path id="Path_11623" data-name="Path 11623" d="M93.861,27.5h2.127V23.974H92.85a4.617,4.617,0,0,0-3.247,1.3,5.121,5.121,0,0,0-.386.425,4.5,4.5,0,0,0-.974,2.839V44.97q.595.059,1.205.06a12.023,12.023,0,0,0,2.634-.294V29.277A1.779,1.779,0,0,1,93.861,27.5" transform="translate(-77.454 -21.043)" fill="#fff"/>
  </g>
</svg>
