<svg xmlns="http://www.w3.org/2000/svg" width="14.195" height="17.034" viewBox="0 0 14.195 17.034">
  <path id="Path_2" data-name="Path 2" d="M36.348,24.168a7.076,7.076,0,0,0-7.1,6.964c0,3.638,2.263,7.468,6.591,9.941a.991.991,0,0,0,1.007-.018c4.039-2.475,6.6-6.3,6.6-9.925a7.075,7.075,0,0,0-7.1-6.963Zm0,10.275h0a3.51,3.51,0,0,1-3.239-2.085,3.289,3.289,0,0,1,.759-3.683,3.6,3.6,0,0,1,3.821-.733,3.381,3.381,0,0,1,2.165,3.122,3.446,3.446,0,0,1-3.506,3.379Z" transform="translate(-29.25 -24.168)" fill="#2e2e2e"/>
</svg>
