<svg id="Component_1_1" data-name="Component 1 – 1" xmlns="http://www.w3.org/2000/svg" width="263.65" height="121.375" viewBox="0 0 263.65 121.375">
  <path id="Lorem_ipsum_dolor_sit_amet_consetetur_sadipscing_elitr._TAG:H1_" data-name="Lorem ipsum dolor sit amet, 
consetetur sadipscing elitr. [TAG:H1]" d="M558.55,137.8h-12.9V160H523.6V137.8H477.85V122.05L524.8,52.9h20.85v67.35h12.9ZM523.6,120.25V102.1q0-3.45.15-8.4t.375-9.225q.225-4.275.375-5.625h-.6q-1.35,3-2.925,5.85t-3.525,5.85l-19.65,29.7Zm117.75-13.8q0,17.25-3.675,29.55T625.75,154.9q-8.25,6.6-21.9,6.6-19.35,0-28.35-14.55t-9-40.5q0-17.25,3.6-29.625T581.95,57.85q8.25-6.6,21.9-6.6,19.2,0,28.35,14.55T641.35,106.45Zm-52.35,0q0,18.3,3.15,27.525t11.7,9.225q8.4,0,11.7-9.15t3.3-27.6q0-18.3-3.3-27.6t-11.7-9.3q-8.55,0-11.7,9.3T589,106.45ZM730.15,137.8h-12.9V160H695.2V137.8H649.45V122.05L696.4,52.9h20.85v67.35h12.9ZM695.2,120.25V102.1q0-3.45.15-8.4t.375-9.225q.225-4.275.375-5.625h-.6q-1.35,3-2.925,5.85t-3.525,5.85l-19.65,29.7Z" transform="translate(-477.85 -51.25)" fill="#d6186f"/>
  <path id="Lorem_ipsum_dolor_sit_amet_consetetur_sadipscing_elitr._TAG:H1_2" data-name="Lorem ipsum dolor sit amet, 
consetetur sadipscing elitr. [TAG:H1]" d="M558.55,137.8h-12.9V160H523.6V137.8H477.85V122.05L524.8,52.9h20.85v67.35h12.9ZM523.6,120.25V102.1q0-3.45.15-8.4t.375-9.225q.225-4.275.375-5.625h-.6q-1.35,3-2.925,5.85t-3.525,5.85l-19.65,29.7Zm117.75-13.8q0,17.25-3.675,29.55T625.75,154.9q-8.25,6.6-21.9,6.6-19.35,0-28.35-14.55t-9-40.5q0-17.25,3.6-29.625T581.95,57.85q8.25-6.6,21.9-6.6,19.2,0,28.35,14.55T641.35,106.45Zm-52.35,0q0,18.3,3.15,27.525t11.7,9.225q8.4,0,11.7-9.15t3.3-27.6q0-18.3-3.3-27.6t-11.7-9.3q-8.55,0-11.7,9.3T589,106.45ZM730.15,137.8h-12.9V160H695.2V137.8H649.45V122.05L696.4,52.9h20.85v67.35h12.9ZM695.2,120.25V102.1q0-3.45.15-8.4t.375-9.225q.225-4.275.375-5.625h-.6q-1.35,3-2.925,5.85t-3.525,5.85l-19.65,29.7Z" transform="translate(-466.5 -40.125)"/>
  <path id="Lorem_ipsum_dolor_sit_amet_consetetur_sadipscing_elitr._TAG:H1_3" data-name="Lorem ipsum dolor sit amet, 
consetetur sadipscing elitr. [TAG:H1]" d="M558.55,137.8h-12.9V160H523.6V137.8H477.85V122.05L524.8,52.9h20.85v67.35h12.9ZM523.6,120.25V102.1q0-3.45.15-8.4t.375-9.225q.225-4.275.375-5.625h-.6q-1.35,3-2.925,5.85t-3.525,5.85l-19.65,29.7Zm117.75-13.8q0,17.25-3.675,29.55T625.75,154.9q-8.25,6.6-21.9,6.6-19.35,0-28.35-14.55t-9-40.5q0-17.25,3.6-29.625T581.95,57.85q8.25-6.6,21.9-6.6,19.2,0,28.35,14.55T641.35,106.45Zm-52.35,0q0,18.3,3.15,27.525t11.7,9.225q8.4,0,11.7-9.15t3.3-27.6q0-18.3-3.3-27.6t-11.7-9.3q-8.55,0-11.7,9.3T589,106.45ZM730.15,137.8h-12.9V160H695.2V137.8H649.45V122.05L696.4,52.9h20.85v67.35h12.9ZM695.2,120.25V102.1q0-3.45.15-8.4t.375-9.225q.225-4.275.375-5.625h-.6q-1.35,3-2.925,5.85t-3.525,5.85l-19.65,29.7Z" transform="translate(-473.85 -45.25)" fill="#fff"/>
</svg>
