<svg xmlns="http://www.w3.org/2000/svg" xmlns:xlink="http://www.w3.org/1999/xlink" width="163.498" height="114.301" viewBox="0 0 163.498 114.301">
  <defs>
    <clipPath id="clip-path">
      <rect id="Rectangle_207" data-name="Rectangle 207" width="163.498" height="114.301" fill="none"/>
    </clipPath>
  </defs>
  <g id="Group_243" data-name="Group 243" transform="translate(0 0.001)">
    <g id="Group_242" data-name="Group 242" transform="translate(0 0)" clip-path="url(#clip-path)">
      <path id="Path_11631" data-name="Path 11631" d="M47.54,47.764c-1.05-3.207-.517-6.07,2.064-8.271,2.753-2.346,5.794-2.309,8.905-.5.031-.415.067-.795.088-1.177a26.966,26.966,0,0,1,4.721-13.567,40.736,40.736,0,0,1,9.228-9.61,53.635,53.635,0,0,1,8.22-5.195,1.46,1.46,0,0,1,.157-.078c.3-.112.4-.257.311-.619a6.75,6.75,0,0,1,.043-3.194,7.279,7.279,0,0,1,13.767-1.13c.818,1.925,1.58,3.871,2.367,5.808Q107.6,35.282,117.784,60.337a7.2,7.2,0,0,1-.744,7.294,7.278,7.278,0,0,1-12.193-.587c-.031-.051-.055-.1-.084-.155-.28-.472-.121-.446-.715-.268a56.441,56.441,0,0,1-10.28,2.042,43.915,43.915,0,0,1-9.434.025,29.65,29.65,0,0,1-12.588-4.145,24.822,24.822,0,0,1-3.6-2.724.809.809,0,0,0-.431-.292A7.118,7.118,0,0,1,65,66.064a7.281,7.281,0,0,1-10.734-2.1,2.127,2.127,0,0,1-.17-.305" transform="translate(45.06 0.001)" fill="#2d2a26"/>
      <path id="Path_11632" data-name="Path 11632" d="M75.037,6.439a1.065,1.065,0,0,1,.282.507q3.812,9.334,7.619,18.674,3.4,8.332,6.806,16.663L95.6,56.61c.178.437.18.444-.292.585a51.847,51.847,0,0,1-6.4,1.453,47.967,47.967,0,0,1-6.824.625,29.82,29.82,0,0,1-13.465-2.553A21.178,21.178,0,0,1,61.546,51.4a28.771,28.771,0,0,1-6.289-13.127,23.237,23.237,0,0,1-.544-5.353A24.1,24.1,0,0,1,59.432,19.1a37.8,37.8,0,0,1,8.815-8.613A50.9,50.9,0,0,1,74.4,6.725a2.337,2.337,0,0,1,.638-.286" transform="translate(52.413 6.17)" fill="#d6186f"/>
      <path id="Path_11633" data-name="Path 11633" d="M43.389,29.688q4.209-1.709,8.418-3.417c.6-.241.6-.237.842.374q1.6,3.936,3.205,7.871c.045.11.086.217.137.325a.244.244,0,0,1-.147.372c-.255.1-.5.215-.76.317" transform="translate(41.568 25.027)" fill="#fff"/>
      <path id="Path_11634" data-name="Path 11634" d="M96.5,61.665a3.832,3.832,0,0,1-2.827,3.616A3.706,3.706,0,0,1,89.4,63.3c-.57-1.22-1.046-2.485-1.553-3.734q-4.13-10.159-8.251-20.321-3.131-7.716-6.266-15.429c-2.26-5.559-4.507-11.124-6.792-16.673A3.88,3.88,0,0,1,67.445,2.8a3.723,3.723,0,0,1,5.806,1.014c.5.971.862,2.009,1.275,3.023q4.2,10.321,8.39,20.644Q85.852,34.7,88.78,41.93q3.633,8.937,7.27,17.871a4.639,4.639,0,0,1,.454,1.864" transform="translate(63.448 1.745)" fill="#d6186f"/>
      <path id="Path_11635" data-name="Path 11635" d="M62.547,40.027a3.715,3.715,0,0,1-3.691,3.836,3.505,3.505,0,0,1-3.423-2.15c-.546-1.189-1.008-2.416-1.5-3.628-1.6-3.926-3.184-7.858-4.793-11.78a3.756,3.756,0,1,1,6.929-2.9q1.645,4.012,3.27,8.032,1.466,3.613,2.929,7.223a3.254,3.254,0,0,1,.28,1.365" transform="translate(46.8 20.19)" fill="#d6186f"/>
      <path id="Path_11636" data-name="Path 11636" d="M8.351,71.814A8.337,8.337,0,0,1,4.257,56.2l39.445-23-1.641,9.34a.472.472,0,0,0,.106.321.357.357,0,0,0,.241.092l7.535.112-1.933,6.916L12.455,70.735a8.35,8.35,0,0,1-4.1,1.079M38.385,40.841,6.2,59.605a4.426,4.426,0,1,0,4.31,7.732L44.665,47.407l.137-.493-2.453-.035a4.269,4.269,0,0,1-3.229-1.547,4.445,4.445,0,0,1-.924-3.415Z" transform="translate(-7.471 44.328) rotate(-13)" fill="#2d2a26"/>
      <path id="Path_11637" data-name="Path 11637" d="M31.069,57.87l2.626-6.383c.053-.286-.088-.47-.284-.5l-7.531-1,2.747-9.171L68.945,24.376l6.424,15.418Zm-.117-11.155,2.976.4a4.284,4.284,0,0,1,3.695,3.855L70.235,37.659l-3.409-8.19L31.84,43.739Z" transform="translate(24.794 23.354)" fill="#2d2a26"/>
    </g>
  </g>
</svg>
